<?xml version="1.0" encoding="UTF-8" standalone="no"?>
<!-- Created with Inkscape (http://www.inkscape.org/) -->

<svg
   xmlns:dc="http://purl.org/dc/elements/1.1/"
   xmlns:cc="http://creativecommons.org/ns#"
   xmlns:rdf="http://www.w3.org/1999/02/22-rdf-syntax-ns#"
   xmlns:svg="http://www.w3.org/2000/svg"
   xmlns="http://www.w3.org/2000/svg"
   xmlns:sodipodi="http://sodipodi.sourceforge.net/DTD/sodipodi-0.dtd"
   xmlns:inkscape="http://www.inkscape.org/namespaces/inkscape"
   width="6.7660742mm"
   height="6.5980392mm"
   viewBox="0 0 6.7660742 6.5980392"
   version="1.1"
   id="svg8"
   inkscape:version="0.92.4 (5da689c313, 2019-01-14)"
   sodipodi:docname="cart-icon.svg">
  <defs
     id="defs2" />
  <sodipodi:namedview
     id="base"
     pagecolor="#ffffff"
     bordercolor="#666666"
     borderopacity="1.0"
     inkscape:pageopacity="0.0"
     inkscape:pageshadow="2"
     inkscape:zoom="7.9195959"
     inkscape:cx="61.225071"
     inkscape:cy="11.864573"
     inkscape:document-units="mm"
     inkscape:current-layer="layer1"
     showgrid="false"
     fit-margin-top="0"
     fit-margin-left="0"
     fit-margin-right="0"
     fit-margin-bottom="0"
     inkscape:window-width="1920"
     inkscape:window-height="1015"
     inkscape:window-x="0"
     inkscape:window-y="0"
     inkscape:window-maximized="1" />
  <metadata
     id="metadata5">
    <rdf:RDF>
      <cc:Work
         rdf:about="">
        <dc:format>image/svg+xml</dc:format>
        <dc:type
           rdf:resource="http://purl.org/dc/dcmitype/StillImage" />
        <dc:title></dc:title>
      </cc:Work>
    </rdf:RDF>
  </metadata>
  <g
     inkscape:label="Layer 1"
     inkscape:groupmode="layer"
     id="layer1"
     transform="translate(-95.111806,-136.05662)">
    <path
       style="fill:#000000;stroke-width:0.08466666"
       d="m 97.915476,142.54831 c -0.24313,-0.24314 -0.009,-0.82974 0.33073,-0.82974 0.40355,0 0.64266,0.52159 0.36596,0.79829 -0.15745,0.15745 -0.55284,0.1753 -0.69669,0.0314 z m 0.53842,-0.24519 c 0.0895,-0.14478 -0.19282,-0.38827 -0.31199,-0.26911 -0.0531,0.0531 -0.0736,0.15623 -0.0456,0.22921 0.0586,0.1527 0.27308,0.17663 0.35758,0.0399 z m 1.664404,0.24095 c -0.192614,-0.23433 -0.153944,-0.62299 0.0741,-0.74505 0.44474,-0.23802 0.90729,0.2235 0.63717,0.63575 -0.15431,0.23551 -0.55675,0.29735 -0.71131,0.1093 z m 0.47431,-0.33866 c -0.0149,-0.10478 -0.0842,-0.1905 -0.15406,-0.1905 -0.0699,0 -0.13918,0.0857 -0.15406,0.1905 -0.0208,0.14661 0.0147,0.1905 0.15406,0.1905 0.13939,0 0.17488,-0.0439 0.15406,-0.1905 z m -3.080564,-0.91906 c -0.0318,-0.0515 -0.32932,-1.14683 -0.66116,-2.43417 l -0.60334,-2.34061 -0.5222,-0.0423 c -0.57181,-0.0463 -0.66766,-0.0944 -0.59026,-0.29613 0.0423,-0.11018 0.17509,-0.12971 0.74471,-0.10948 l 0.69326,0.0246 0.17591,0.67733 0.17591,0.67734 2.4765,0.0224 c 1.362084,0.0123 2.476504,0.0421 2.476504,0.0661 0,0.0751 -0.42647,2.7798 -0.46996,2.98057 -0.0412,0.19019 -0.0441,0.1905 -1.817654,0.1905 -1.51152,0 -1.77639,0.0187 -1.77639,0.12525 0,0.10567 0.26794,0.12883 1.7145,0.14817 1.705654,0.0228 1.714644,0.0239 1.741564,0.21342 l 0.0271,0.1905 h -1.863554 c -1.26913,0 -1.88201,-0.0299 -1.92139,-0.0936 z m 3.558484,-1.28228 c 0.11749,-0.68808 0.2987,-1.8939 0.29901,-1.98966 2.7e-4,-0.0819 -0.48772,-0.10584 -2.158664,-0.10584 -1.18745,0 -2.15864,0.01 -2.15821,0.0212 4.3e-4,0.0116 0.13379,0.5329 0.29634,1.15836 0.16254,0.62545 0.29554,1.14933 0.29554,1.16416 0,0.0148 0.76027,0.027 1.6895,0.027 h 1.689494 z"
       id="path3724"
       inkscape:connector-curvature="0" />
  </g>
</svg>
