<?xml version="1.0" encoding="UTF-8" standalone="no"?>
<!-- Created with Inkscape (http://www.inkscape.org/) -->

<svg
   xmlns:dc="http://purl.org/dc/elements/1.1/"
   xmlns:cc="http://creativecommons.org/ns#"
   xmlns:rdf="http://www.w3.org/1999/02/22-rdf-syntax-ns#"
   xmlns:svg="http://www.w3.org/2000/svg"
   xmlns="http://www.w3.org/2000/svg"
   xmlns:sodipodi="http://sodipodi.sourceforge.net/DTD/sodipodi-0.dtd"
   xmlns:inkscape="http://www.inkscape.org/namespaces/inkscape"
   width="170.24957mm"
   height="143.44725mm"
   viewBox="0 0 170.24957 143.44725"
   version="1.1"
   id="svg8"
   inkscape:version="0.92.4 (5da689c313, 2019-01-14)"
   sodipodi:docname="footer-image.svg">
  <defs
     id="defs2" />
  <sodipodi:namedview
     id="base"
     pagecolor="#ffffff"
     bordercolor="#666666"
     borderopacity="1.0"
     inkscape:pageopacity="0.0"
     inkscape:pageshadow="2"
     inkscape:zoom="0.70000001"
     inkscape:cx="474.52311"
     inkscape:cy="18.394821"
     inkscape:document-units="mm"
     inkscape:current-layer="layer1"
     showgrid="false"
     inkscape:window-width="1920"
     inkscape:window-height="1019"
     inkscape:window-x="0"
     inkscape:window-y="0"
     inkscape:window-maximized="1" />
  <metadata
     id="metadata5">
    <rdf:RDF>
      <cc:Work
         rdf:about="">
        <dc:format>image/svg+xml</dc:format>
        <dc:type
           rdf:resource="http://purl.org/dc/dcmitype/StillImage" />
        <dc:title></dc:title>
      </cc:Work>
    </rdf:RDF>
  </metadata>
  <g
     inkscape:label="Layer 1"
     inkscape:groupmode="layer"
     id="layer1"
     transform="translate(0.11063414,-0.14774533)">
    <path
       style="fill:#000000;stroke-width:0.35277778"
       d="m 73.683945,142.72805 c -1.930919,-1.40725 -4.125853,-3.87833 -5.926505,-6.67211 -2.25027,-3.49139 -3.17968,-5.49024 -4.41111,-9.48687 -1.21695,-3.94963 -1.27285,-4.00584 -5.15274,-5.18139 -0.97014,-0.29394 -3.43077,-1.16282 -5.46806,-1.93085 -2.03729,-0.76803 -4.37672,-1.4795 -5.19872,-1.58104 l -1.49455,-0.18462 -0.72525,2.43524 c -0.39888,1.33938 -0.83758,2.43021 -0.97489,2.42406 -0.1373,-0.006 -0.9482,-1.0474 -1.802,-2.3139 -0.85379,-1.26651 -2.21708,-3.04742 -3.02953,-3.95758 -1.43721,-1.61008 -4.73682,-8.62014 -5.26231,-11.17984 -0.21403,-1.04259 -0.1949,-1.03438 1.28569,0.55153 2.10041,2.24983 5.24415,4.99708 5.46526,4.77598 0.10163,-0.10163 -0.55306,-1.36859 -1.45486,-2.81547 -3.03543,-4.87015 -3.21326,-5.45862 -3.21099,-10.625929 0.002,-4.115881 0.094,-4.804511 0.89889,-6.716111 1.9738,-4.687553 6.74373,-9.927603 12.45943,-13.687423 6.42752,-4.22805 16.03732,-8.70065 18.694149,-8.70065 0.487105,0 13.9546,-4.43542 29.927767,-9.85649 15.973174,-5.421062 29.357894,-9.96022 29.743824,-10.087 0.59852,-0.19662 0.57893,-0.13013 -0.13321,0.45224 -1.52448,1.246678 -9.3154,4.907238 -15.21648,7.14947 -3.20146,1.21646 -7.56708,2.91061 -9.70139,3.76478 -2.1343,0.85417 -5.706184,2.11377 -7.937501,2.79911 -4.86634,1.49467 -9.31243,3.35944 -10.75664,4.51152 l -1.05526,0.84181 1.81315,1.91714 c 1.62078,1.71373 3.90963,5.4197 3.56199,5.76734 -0.0738,0.0738 -2.10854,-0.25576 -4.52163,-0.73238 -6.012034,-1.18748 -10.607102,-1.19162 -14.335201,-0.013 -8.078818,2.5542 -17.938858,12.820693 -19.556278,20.362433 -0.21202,0.98861 -0.32199,3.243531 -0.24439,5.010931 0.11816,2.691009 0.3226,3.601059 1.2575,5.597689 1.24307,2.65478 3.99374,5.79139 6.22141,7.09433 1.66845,0.97584 5.1598,2.0941 5.1598,1.65264 0,-0.16281 -0.22316,-0.38165 -0.4959,-0.48631 -0.77396,-0.297 -0.99952,-2.09986 -0.459,-3.66874 1.02344,-2.97054 7.849283,-11.959799 12.730905,-16.76588 2.558183,-2.51859 6.560094,-5.55611 7.320134,-5.55611 0.35539,0 -0.60547,1.9639 -3.011683,6.15555 -0.885349,1.54229 -1.945824,3.844171 -2.356605,5.115281 -0.410785,1.271109 -1.046134,2.952219 -1.411884,3.735799 -1.836773,3.93508 -3.493071,14.13573 -3.49195,21.50587 0.0011,6.18275 0.345335,8.30338 2.339436,14.40532 0.877182,2.68418 1.527725,4.94748 1.445651,5.02955 -0.08207,0.0821 -0.769881,-0.30311 -1.528469,-0.85597 z M 28.86148,86.39008 c -1.38087,-1.959433 -1.95422,-12.247663 -1.14462,-20.539033 0.21524,-2.20423 0.3342,-4.06481 0.26437,-4.13464 -0.38379,-0.3838 -8.43988,-0.9617 -17.41264,-1.24911 -5.6268,-0.18023 -10.38929961,-0.3395 -10.58332961,-0.35393 -0.73764,-0.0549 2.95928001,-1.72771 4.96115961,-2.24489 8.60686,-2.22354 29.83454,-2.57137 53.42355,-0.87537 3.00744,0.21623 5.53585,0.45424 5.6187,0.52892 0.3182,0.28683 -1.44886,1.24909 -8.35465,4.54956 l -7.14566,3.41511 -2.37933,-0.54365 c -4.89708,-1.11893 -4.41146,-1.23494 -6.79854,1.62411 -4.59828,5.50744 -7.13681,10.25558 -8.48778,15.87579 -0.38349,1.59535 -0.81571,3.371563 -0.96049,3.947133 l -0.26324,1.04649 z M 73.819168,56.464977 c -1.086221,-0.82533 -3.050325,-5.527292 -3.981478,-9.53145 -0.984444,-4.23334 -1.417222,-5.34028 -1.736898,-4.44256 -1.227515,3.44714 -1.969702,7.113788 -1.969702,9.730968 0,1.627522 -0.13528,2.959142 -0.30061,2.959142 -0.95461,0 -2.80893,-1.809392 -3.71792,-3.627862 -0.84278,-1.68597 -1.05026,-2.620378 -1.1946,-5.379858 -0.0961,-1.83672 -0.30723,-3.3395 -0.46923,-3.3395 -0.16201,0 -0.63782,1.13012 -1.05736,2.51137 -0.7594,2.50016 -0.78962,4.681478 -0.11061,7.983768 0.23398,1.137962 0.22552,1.146452 -1.13127,1.136532 -0.75186,-0.005 -4.22452,-0.24022 -7.71702,-0.5216 -3.4925,-0.28138 -9.32655,-0.515012 -12.96457,-0.519172 -5.61743,-0.006 -6.61459,-0.0867 -6.61459,-0.53252 0,-0.94947 2.17608,-7.342698 3.76801,-11.070288 0.85916,-2.01176 3.15273,-6.83595 5.09682,-10.720432 C 45.33478,19.878934 46.72831,14.76844 46.72831,5.3932013 V 0.14774533 h 0.89682 c 1.44574,0 6.1056,1.04810997 8.05946,1.81275597 5.01175,1.961361 10.71361,6.9442186 12.858966,11.2374517 0.613417,1.227562 1.114513,2.405011 1.113547,2.616554 -0.0011,0.211547 -3.493463,1.880874 -7.761113,3.709617 -4.26764,1.828747 -7.75692,3.416247 -7.75395,3.527778 0.0272,1.021507 0.7111,0.983146 3.35781,-0.188351 11.780352,-5.214261 22.76129,-7.543751 38.793739,-8.229678 11.435051,-0.489236 22.417481,0.11884 38.276381,2.119295 16.80528,2.119827 28.91346,4.70663 33.95487,7.254148 1.89432,0.957238 2.08405,1.576204 0.76451,2.4941 -0.50114,0.348604 -1.68694,1.299524 -2.6351,2.113153 -3.27553,2.810753 -12.55288,7.795818 -21.53422,11.571108 -2.60107,1.09336 -5.42391,2.37461 -6.27296,2.84722 -0.84906,0.47261 -1.76316,0.85929 -2.03133,0.85929 -0.26817,0 -0.74902,-0.65337 -1.06854,-1.45194 -0.73018,-1.8249 -1.75381,-2.28197 -6.31541,-2.81995 -4.36794,-0.51514 -10.89422,-0.24289 -17.54034,0.73169 -2.86881,0.42069 -5.48818,0.70544 -5.82083,0.63278 -0.86904,-0.18982 3.72754,-2.46234 7.18772,-3.55358 5.56481,-1.75498 10.05921,-2.42876 17.47993,-2.62052 7.4143,-0.1916 10.42275,0.18167 14.02997,1.74071 2.5087,1.08426 3.98955,0.7393 10.10829,-2.35467 6.94266,-3.510581 11.08403,-6.13415 10.3401,-6.550474 -1.4465,-0.809502 -9.24101,-1.206119 -23.8035,-1.211217 l -15.20546,-0.0053 -1.43208,1.293802 c -1.94859,1.760432 -2.69168,2.109273 -5.09732,2.39292 l -2.06688,0.243706 1.66705,-1.692501 c 0.91688,-0.930874 1.59725,-1.760124 1.51193,-1.842777 -0.64894,-0.628667 -15.59379,3.123939 -21.051834,5.286051 -9.006597,3.56781 -16.320727,9.04344 -21.103077,15.79853 -1.768281,2.497708 -2.38519,3.735208 -3.03367,6.08542 -0.447707,1.62257 -0.896454,2.94508 -0.997218,2.93891 -0.100764,-0.006 -0.454194,-0.21712 -0.785403,-0.46877 z"
       id="path21"
       inkscape:connector-curvature="0" />
  </g>
</svg>
